<svg width="161" height="57" viewBox="0 0 161 57" fill="none" xmlns="http://www.w3.org/2000/svg">
<g clip-path="url(#clip0)">
<path d="M46.3071 18.0712C46.3071 17.3633 46.0573 16.822 45.5576 16.4472C45.0579 16.0641 44.1585 15.6644 42.8593 15.248C41.5601 14.8232 40.5316 14.4068 39.7738 13.9988C37.7084 12.8828 36.6758 11.3796 36.6758 9.48914C36.6758 8.50643 36.9506 7.63199 37.5002 6.86582C38.0582 6.09131 38.8535 5.48753 39.8862 5.05447C40.9272 4.62142 42.0931 4.40489 43.384 4.40489C44.6831 4.40489 45.8407 4.64224 46.8568 5.11693C47.8728 5.5833 48.6598 6.24538 49.2177 7.10316C49.7841 7.96095 50.0672 8.93533 50.0672 10.0263H46.3196C46.3196 9.1935 46.0573 8.54807 45.5326 8.09003C45.0079 7.62367 44.2709 7.39048 43.3215 7.39048C42.4054 7.39048 41.6934 7.58619 41.1854 7.97761C40.6774 8.36069 40.4234 8.8687 40.4234 9.50163C40.4234 10.0929 40.719 10.5884 41.3103 10.9882C41.9099 11.3879 42.7885 11.7627 43.9461 12.1125C46.0781 12.7537 47.6313 13.549 48.6056 14.4984C49.58 15.4478 50.0672 16.6304 50.0672 18.0462C50.0672 19.6202 49.4718 20.8569 48.2808 21.7563C47.0899 22.6474 45.4868 23.0929 43.4714 23.0929C42.0723 23.0929 40.7981 22.8389 39.6489 22.3309C38.4996 21.8146 37.621 21.1109 37.013 20.2198C36.4134 19.3287 36.1136 18.296 36.1136 17.1218H39.8737C39.8737 19.1288 41.073 20.1323 43.4714 20.1323C44.3625 20.1323 45.0579 19.9533 45.5576 19.5952C46.0573 19.2288 46.3071 18.7207 46.3071 18.0712ZM66.3068 7.69029H60.7354V22.8431H56.9878V7.69029H51.4913V4.65473H66.3068V7.69029ZM83.0461 14.1612C83.0461 15.9517 82.7297 17.5215 82.0967 18.8706C81.4638 20.2198 80.5561 21.2608 79.3735 21.9937C78.1992 22.7265 76.8501 23.0929 75.3261 23.0929C73.8187 23.0929 72.4737 22.7307 71.2911 22.0061C70.1086 21.2816 69.1925 20.2489 68.5429 18.9081C67.8933 17.559 67.5644 16.01 67.556 14.2611V13.3617C67.556 11.5711 67.8767 9.99715 68.5179 8.63968C69.1675 7.27389 70.0794 6.22872 71.2537 5.50419C72.4362 4.77132 73.7854 4.40489 75.3011 4.40489C76.8168 4.40489 78.1618 4.77132 79.336 5.50419C80.5186 6.22872 81.4305 7.27389 82.0718 8.63968C82.7213 9.99715 83.0461 11.567 83.0461 13.3492V14.1612ZM79.2486 13.3367C79.2486 11.4296 78.9071 9.98049 78.2242 8.98946C77.5413 7.99843 76.5669 7.50291 75.3011 7.50291C74.0436 7.50291 73.0733 7.99426 72.3904 8.97697C71.7075 9.95134 71.3619 11.3838 71.3536 13.2742V14.1612C71.3536 16.0183 71.6951 17.459 72.378 18.4834C73.0609 19.5077 74.0436 20.0199 75.3261 20.0199C76.5836 20.0199 77.5496 19.5286 78.2242 18.5459C78.8988 17.5548 79.2402 16.1141 79.2486 14.2236V13.3367ZM100.048 16.7845C99.9062 18.7416 99.1817 20.2822 97.8742 21.4065C96.575 22.5308 94.8594 23.0929 92.7275 23.0929C90.3956 23.0929 88.5593 22.3101 87.2185 20.7444C85.886 19.1705 85.2197 17.0135 85.2197 14.2736V13.1618C85.2197 11.4129 85.5279 9.87223 86.1442 8.53975C86.7604 7.20726 87.639 6.18708 88.78 5.4792C89.9292 4.76299 91.2617 4.40489 92.7774 4.40489C94.8761 4.40489 96.5667 4.96703 97.8492 6.09131C99.1317 7.21559 99.8729 8.79375 100.073 10.8258H96.3252C96.2335 9.65154 95.9046 8.80208 95.3383 8.27741C94.7803 7.74442 93.9267 7.47792 92.7774 7.47792C91.5282 7.47792 90.5913 7.92764 89.9667 8.82706C89.3504 9.71816 89.034 11.1048 89.0173 12.9869V14.361C89.0173 16.3264 89.313 17.763 89.9043 18.6708C90.5039 19.5785 91.4449 20.0324 92.7275 20.0324C93.885 20.0324 94.747 19.7701 95.3133 19.2454C95.8879 18.7124 96.2169 17.8921 96.3002 16.7845H100.048ZM108.205 15.5478L106.256 17.6464V22.8431H102.509V4.65473H106.256V12.8995L107.905 10.6384L112.54 4.65473H117.149L110.691 12.7371L117.337 22.8431H112.877L108.205 15.5478ZM31.2542 33.6547L35.9262 46.8463L40.5733 33.6547H45.4951V51.8431H41.735V46.8713L42.1098 38.2893L37.2004 51.8431H34.6271L29.7302 38.3018L30.105 46.8713V51.8431H26.3574V33.6547H31.2542ZM59.2613 48.0955H52.6905L51.4413 51.8431H47.4564L54.227 33.6547H57.6998L64.508 51.8431H60.523L59.2613 48.0955ZM53.7024 45.0599H58.2495L55.9634 38.2518L53.7024 45.0599ZM72.9401 45.1849H69.9545V51.8431H66.2069V33.6547H72.9651C75.1137 33.6547 76.771 34.1336 77.9369 35.0913C79.1028 36.049 79.6858 37.4023 79.6858 39.1512C79.6858 40.3921 79.4151 41.4289 78.8738 42.2617C78.3408 43.0862 77.5288 43.7441 76.4379 44.2355L80.3728 51.6682V51.8431H76.3504L72.9401 45.1849ZM69.9545 42.1493H72.9776C73.9186 42.1493 74.6473 41.912 75.1637 41.4373C75.68 40.9542 75.9382 40.2922 75.9382 39.451C75.9382 38.5932 75.6925 37.9187 75.2011 37.4273C74.7181 36.936 73.9728 36.6903 72.9651 36.6903H69.9545V42.1493ZM88.2428 44.5478L86.2941 46.6464V51.8431H82.5465V33.6547H86.2941V41.8995L87.943 39.6384L92.5775 33.6547H97.1871L90.7287 41.7371L97.3745 51.8431H92.9148L88.2428 44.5478ZM109.729 43.9606H102.534V48.8325H110.978V51.8431H98.7861V33.6547H110.953V36.6903H102.534V41.025H109.729V43.9606ZM127.118 36.6903H121.547V51.8431H117.799V36.6903H112.302V33.6547H127.118V36.6903Z" fill="black"/>
<path d="M38.5074 30.8866L28.1004 21.024L3.39673 46.1302L0 42.7907L28.1362 14.1948L38.5074 24.9662V30.8866Z" fill="black"/>
<path d="M134.76 41.8666L129.71 35.8785L124.522 30.4185V24.6466L129.71 29.7542L134.895 35.1399L152.737 18.0562L147.625 12.9468H160.971V26.2884L156.105 21.4243L134.76 41.8666Z" fill="black"/>
<path d="M38.3752 25.1977L124.798 24.8026V30.7305H38.3752V25.1977Z" fill="black"/>
</g>
<defs>
<clipPath id="clip0">
<rect width="160.971" height="56.9769" fill="white"/>
</clipPath>
</defs>
</svg>
